<svg width="3621" height="3755" viewBox="0 0 3621 3755" fill="none" xmlns="http://www.w3.org/2000/svg">
<g clip-path="url(#clip0_1_31)">
<path d="M1729.43 1286.82C1725.28 1326.29 1722.16 1364.73 1720.08 1402.12C1719.04 1438.48 1718.53 1466.53 1718.53 1486.27C1718.53 1511.2 1719.04 1534.57 1720.08 1556.38C1721.12 1578.2 1722.16 1597.41 1723.2 1614.03H1687.36C1680.09 1541.32 1670.22 1484.19 1657.76 1442.64C1645.29 1400.05 1623.48 1369.4 1592.31 1350.71C1561.15 1332.01 1512.85 1322.66 1447.4 1322.66H1363.26V2209.25C1363.26 2250.8 1366.9 2281.97 1374.17 2302.74C1382.48 2323.52 1398.06 2337.54 1420.92 2344.81C1443.77 2352.08 1477.01 2356.76 1520.64 2358.84V2390C1493.63 2387.92 1459.35 2386.88 1417.8 2386.88C1376.25 2385.84 1334.18 2385.33 1291.59 2385.33C1244.84 2385.33 1200.7 2385.84 1159.14 2386.88C1118.63 2386.88 1085.91 2387.92 1060.98 2390V2358.84C1104.61 2356.76 1137.85 2352.08 1160.7 2344.81C1183.56 2337.54 1198.62 2323.52 1205.89 2302.74C1214.2 2281.97 1218.35 2250.8 1218.35 2209.25V1322.66H1134.21C1069.81 1322.66 1021.51 1332.01 989.305 1350.71C958.142 1369.4 936.328 1400.05 923.862 1442.64C911.397 1484.19 901.529 1541.32 894.257 1614.03H858.419C860.497 1597.41 861.536 1578.2 861.536 1556.38C862.574 1534.57 863.094 1511.2 863.094 1486.27C863.094 1466.53 862.055 1438.48 859.978 1402.12C858.939 1364.73 856.342 1326.29 852.187 1286.82C895.815 1287.86 943.08 1288.9 993.98 1289.94C1045.92 1290.98 1097.86 1291.5 1149.8 1291.5C1201.73 1291.5 1249 1291.5 1291.59 1291.5C1334.18 1291.5 1380.92 1291.5 1431.82 1291.5C1483.76 1291.5 1535.7 1290.98 1587.64 1289.94C1639.58 1288.9 1686.84 1287.86 1729.43 1286.82Z" fill="#1F8A70"/>
<path d="M2131.82 1083.82C2317.76 1083.82 2455.92 1130.57 2546.29 1224.06C2636.67 1316.51 2681.85 1449.47 2681.85 1622.95C2681.85 1736.17 2659.52 1835.37 2614.85 1920.55C2571.22 2004.69 2507.34 2070.14 2423.2 2116.88C2339.06 2163.63 2237.26 2187 2117.8 2187C2102.22 2187 2081.44 2186.48 2055.47 2185.44C2029.5 2184.4 2002.49 2183.88 1974.45 2183.88C1947.44 2182.84 1922.51 2182.33 1899.66 2182.33C1863.3 2182.33 1827.46 2182.84 1792.14 2183.88C1756.82 2183.88 1728.26 2184.92 1706.44 2187V2155.84C1741.76 2153.76 1768.25 2149.6 1785.91 2143.37C1804.61 2137.14 1817.07 2124.67 1823.31 2105.98C1829.54 2087.28 1832.65 2059.23 1832.65 2021.83V1248.99C1832.65 1210.55 1829.54 1182.5 1823.31 1164.85C1817.07 1146.15 1804.61 1133.68 1785.91 1127.45C1768.25 1120.18 1741.76 1116.02 1706.44 1114.98V1083.82C1728.26 1084.86 1756.82 1086.42 1792.14 1088.5C1827.46 1089.53 1862.26 1089.53 1896.54 1088.5C1932.9 1087.46 1973.93 1086.42 2019.63 1085.38C2065.34 1084.34 2102.74 1083.82 2131.82 1083.82ZM2092.87 1111.87C2045.08 1111.87 2013.92 1120.7 1999.38 1138.36C1984.83 1156.02 1977.56 1191.85 1977.56 1245.87V2024.95C1977.56 2078.97 1984.83 2114.81 1999.38 2132.46C2014.96 2150.12 2046.64 2158.95 2094.43 2158.95C2207.65 2158.95 2295.43 2138.7 2357.75 2098.18C2420.08 2056.63 2463.71 1996.38 2488.64 1917.44C2513.57 1838.49 2526.04 1742.4 2526.04 1629.18C2526.04 1512.83 2512.01 1416.75 2483.97 1340.92C2456.96 1264.05 2411.77 1206.92 2348.41 1169.52C2286.08 1131.08 2200.9 1111.87 2092.87 1111.87Z" fill="#1F8A70"/>
</g>
<path d="M1323.8 1664.2H1287.2C1287.4 1671.2 1287.6 1676.4 1287.6 1680V1775.8C1287.6 1784 1288.8 1789 1291 1791C1286.8 1792.8 1282 1793.8 1276.6 1793.8C1271.2 1793.8 1268.6 1789.6 1268.6 1781.4V1683C1268.6 1674.8 1268.4 1668.6 1268 1664.2H1250.4C1239.8 1664.2 1230.2 1664.6 1221.6 1665.6C1220.2 1662.2 1219.6 1658.4 1219.6 1654.4C1227.4 1653.4 1236.6 1653 1247.2 1653H1318C1326.4 1653 1331.6 1652.2 1333.4 1650.6C1335.2 1653 1336 1655.8 1336 1659.2C1336 1662.6 1332 1664.2 1323.8 1664.2ZM1423.54 1781.4L1423.74 1728C1423.74 1721.4 1421.94 1716 1418.34 1711.8C1414.74 1707.6 1410.14 1705.4 1404.54 1705.4C1396.94 1705.4 1390.34 1709 1384.54 1716.2C1378.74 1723.4 1375.74 1731 1375.34 1739.2V1775.4C1375.34 1783.4 1375.94 1788.6 1377.14 1791C1373.94 1792.6 1369.74 1793.4 1364.74 1793.4C1362.34 1793.4 1360.54 1792.6 1359.14 1791C1357.74 1789.4 1357.14 1786 1357.14 1781V1677.6C1357.14 1667.8 1356.54 1658.2 1355.14 1648.8C1359.74 1647.4 1365.74 1646.8 1373.14 1646.8C1374.74 1654.4 1375.54 1662 1375.54 1669.6V1719.4C1378.14 1712.6 1382.74 1706.8 1389.34 1702C1395.94 1697.2 1403.74 1694.8 1412.74 1694.8C1421.14 1694.8 1428.14 1697.6 1433.54 1703.2C1438.94 1708.8 1441.74 1715.8 1441.74 1724.4V1775.8C1441.74 1784 1442.94 1789 1445.14 1791C1440.94 1792.8 1436.34 1793.8 1431.14 1793.8C1426.14 1793.8 1423.54 1789.6 1423.54 1781.4ZM1467.35 1746.2L1467.55 1746C1467.55 1731 1471.75 1718.8 1480.15 1709.6C1488.55 1700.4 1499.55 1695.8 1512.95 1695.8C1525.95 1695.8 1535.95 1699.4 1543.15 1706.8C1550.35 1714.2 1553.95 1724.2 1553.95 1736.8C1553.95 1740 1552.75 1743 1550.35 1745.6H1486.75C1486.95 1756.8 1489.95 1765.8 1495.55 1772.6C1501.15 1779.4 1508.55 1782.8 1517.75 1782.8C1522.35 1782.8 1526.35 1782.2 1529.95 1781C1533.55 1779.8 1536.15 1778.4 1537.95 1777L1542.75 1772.8C1544.15 1771.6 1545.15 1771 1545.75 1771C1547.15 1771 1548.55 1771.6 1549.95 1772.6L1552.75 1774.2C1549.15 1780.2 1543.95 1785 1537.15 1788.6C1530.35 1792.2 1522.75 1794 1514.35 1794C1500.15 1794 1488.75 1789.6 1480.15 1780.8C1471.55 1772 1467.35 1760.4 1467.35 1746.2ZM1512.55 1706.8L1512.75 1706.6C1506.15 1706.6 1500.55 1709.2 1495.95 1714.4C1491.35 1719.6 1488.55 1726.6 1487.35 1735.4H1536.15C1535.55 1726.2 1533.15 1719.2 1528.95 1714.2C1524.75 1709.2 1519.35 1706.8 1512.55 1706.8ZM1682.02 1653V1653.2C1700.62 1653.2 1715.82 1659.4 1727.42 1672C1739.02 1684.6 1744.82 1701 1744.82 1721.4C1744.82 1742.8 1738.82 1760 1726.82 1773.2C1714.82 1786.4 1699.02 1793 1679.42 1793H1660.02C1649.82 1793 1640.22 1793.4 1631.22 1794.4C1630.02 1791.4 1629.42 1787.6 1629.42 1783.2V1683.6C1629.42 1673.8 1628.82 1664.2 1627.42 1654.8C1632.42 1653.6 1638.82 1653 1646.62 1653H1682.02ZM1648.02 1776L1647.82 1782.2C1649.62 1782 1652.62 1782 1656.62 1782H1681.02C1694.02 1782 1704.42 1776.6 1712.42 1765.8C1720.42 1755 1724.42 1741 1724.42 1723.6C1724.42 1706 1720.42 1691.8 1712.22 1680.8C1704.02 1669.8 1693.42 1664.4 1680.22 1664.4H1647.62C1647.82 1671.6 1648.02 1677 1648.02 1680.8V1776ZM1904.87 1781.4L1891.07 1684L1857.47 1776C1854.67 1784 1853.27 1789.2 1853.27 1791.6C1850.27 1793.2 1846.27 1794 1841.27 1794C1838.67 1794 1836.47 1793.2 1834.67 1791.4C1832.87 1789.6 1831.07 1786.4 1829.27 1781.6L1792.67 1684L1780.07 1776C1779.47 1781.4 1779.27 1784.4 1779.27 1785C1779.27 1788 1780.07 1790 1781.47 1791C1777.27 1792.8 1773.07 1793.8 1768.87 1793.8C1765.07 1793.8 1763.07 1791.4 1763.07 1786.4L1777.47 1683C1778.67 1672 1779.27 1662.4 1779.47 1654.4C1784.27 1653 1790.87 1652.4 1799.07 1652.4C1803.67 1660 1807.27 1667.6 1809.87 1675.2L1844.47 1772L1876.07 1682.8C1879.47 1673.4 1882.27 1663.6 1884.67 1653.4C1888.87 1652.8 1895.47 1652.6 1904.47 1652.6C1906.27 1660 1908.07 1669.2 1909.87 1680.2L1923.27 1776C1924.47 1784.2 1926.27 1789.2 1928.87 1791C1925.07 1792.8 1920.27 1793.8 1914.47 1793.8C1909.07 1793.8 1905.87 1789.6 1904.87 1781.4ZM1963.15 1722.2L1962.75 1721.8C1962.75 1739.8 1966.95 1754.4 1975.55 1765.6C1984.15 1776.8 1995.35 1782.4 2009.15 1782.4C2016.15 1782.4 2022.35 1781.6 2027.75 1780.2C2033.15 1778.8 2036.95 1777.2 2039.35 1775.4C2041.75 1773.6 2043.95 1772 2046.15 1770.6C2048.35 1769.2 2049.95 1768.4 2051.15 1768.4C2052.15 1768.4 2053.55 1769 2055.35 1770L2058.35 1771.8C2053.75 1778.4 2046.95 1783.8 2037.95 1788C2028.95 1792.2 2018.95 1794.2 2007.95 1794.2C1987.95 1794.2 1972.15 1787.8 1960.35 1775.2C1948.55 1762.6 1942.75 1746 1942.75 1725.4C1942.75 1703.6 1948.95 1686 1961.15 1672.6C1973.35 1659.2 1989.75 1652.4 2010.15 1652.4C2023.95 1652.4 2035.35 1655.2 2044.15 1660.6C2052.95 1666 2057.35 1671.4 2057.35 1676.8C2057.35 1681.8 2052.35 1684.4 2042.15 1684.4C2039.55 1678.2 2035.35 1673.2 2029.55 1669.4C2023.75 1665.6 2016.95 1663.6 2009.15 1663.6C1995.55 1663.6 1984.55 1669 1975.95 1679.8C1967.35 1690.6 1963.15 1704.8 1963.15 1722.2Z" fill="#1F8A70"/>
<g clip-path="url(#clip1_1_31)">
<path d="M1714.43 1177.82C1710.28 1217.29 1707.16 1255.73 1705.08 1293.12C1704.04 1329.48 1703.53 1357.53 1703.53 1377.27C1703.53 1402.2 1704.04 1425.57 1705.08 1447.38C1706.12 1469.2 1707.16 1488.41 1708.2 1505.03H1672.36C1665.09 1432.32 1655.22 1375.19 1642.76 1333.64C1630.29 1291.05 1608.48 1260.4 1577.31 1241.71C1546.15 1223.01 1497.85 1213.66 1432.4 1213.66H1348.26V2100.25C1348.26 2141.8 1351.9 2172.97 1359.17 2193.74C1367.48 2214.52 1383.06 2228.54 1405.92 2235.81C1428.77 2243.08 1462.01 2247.76 1505.64 2249.84V2281C1478.63 2278.92 1444.35 2277.88 1402.8 2277.88C1361.25 2276.84 1319.18 2276.33 1276.59 2276.33C1229.84 2276.33 1185.7 2276.84 1144.14 2277.88C1103.63 2277.88 1070.91 2278.92 1045.98 2281V2249.84C1089.61 2247.76 1122.85 2243.08 1145.7 2235.81C1168.56 2228.54 1183.62 2214.52 1190.89 2193.74C1199.2 2172.97 1203.35 2141.8 1203.35 2100.25V1213.66H1119.21C1054.81 1213.66 1006.51 1223.01 974.305 1241.71C943.142 1260.4 921.328 1291.05 908.862 1333.64C896.397 1375.19 886.529 1432.32 879.257 1505.03H843.419C845.497 1488.41 846.536 1469.2 846.536 1447.38C847.574 1425.57 848.094 1402.2 848.094 1377.27C848.094 1357.53 847.055 1329.48 844.978 1293.12C843.939 1255.73 841.342 1217.29 837.187 1177.82C880.815 1178.86 928.08 1179.9 978.98 1180.94C1030.92 1181.98 1082.86 1182.5 1134.8 1182.5C1186.73 1182.5 1234 1182.5 1276.59 1182.5C1319.18 1182.5 1365.92 1182.5 1416.82 1182.5C1468.76 1182.5 1520.7 1181.98 1572.64 1180.94C1624.58 1179.9 1671.84 1178.86 1714.43 1177.82Z" fill="#1F8A70"/>
<path d="M2131.82 1177.82C2317.76 1177.82 2455.92 1224.57 2546.29 1318.06C2636.67 1410.51 2681.85 1543.47 2681.85 1716.95C2681.85 1830.17 2659.52 1929.37 2614.85 2014.55C2571.22 2098.69 2507.34 2164.14 2423.2 2210.88C2339.06 2257.63 2237.26 2281 2117.8 2281C2102.22 2281 2081.44 2280.48 2055.47 2279.44C2029.5 2278.4 2002.49 2277.88 1974.45 2277.88C1947.44 2276.84 1922.51 2276.33 1899.66 2276.33C1863.3 2276.33 1827.46 2276.84 1792.14 2277.88C1756.82 2277.88 1728.26 2278.92 1706.44 2281V2249.84C1741.76 2247.76 1768.25 2243.6 1785.91 2237.37C1804.61 2231.14 1817.07 2218.67 1823.31 2199.98C1829.54 2181.28 1832.65 2153.23 1832.65 2115.83V1342.99C1832.65 1304.55 1829.54 1276.5 1823.31 1258.85C1817.07 1240.15 1804.61 1227.68 1785.91 1221.45C1768.25 1214.18 1741.76 1210.02 1706.44 1208.98V1177.82C1728.26 1178.86 1756.82 1180.42 1792.14 1182.5C1827.46 1183.53 1862.26 1183.53 1896.54 1182.5C1932.9 1181.46 1973.93 1180.42 2019.63 1179.38C2065.34 1178.34 2102.74 1177.82 2131.82 1177.82ZM2092.87 1205.87C2045.08 1205.87 2013.92 1214.7 1999.38 1232.36C1984.83 1250.02 1977.56 1285.85 1977.56 1339.87V2118.95C1977.56 2172.97 1984.83 2208.81 1999.38 2226.46C2014.96 2244.12 2046.64 2252.95 2094.43 2252.95C2207.65 2252.95 2295.43 2232.7 2357.75 2192.18C2420.08 2150.63 2463.71 2090.38 2488.64 2011.44C2513.57 1932.49 2526.04 1836.4 2526.04 1723.18C2526.04 1606.83 2512.01 1510.75 2483.97 1434.92C2456.96 1358.05 2411.77 1300.92 2348.41 1263.52C2286.08 1225.08 2200.9 1205.87 2092.87 1205.87Z" fill="#1F8A70"/>
</g>
<defs>
<clipPath id="clip0_1_31">
<rect width="3017" height="1252" fill="white" transform="translate(251 344)"/>
</clipPath>
<clipPath id="clip1_1_31">
<rect width="3017" height="1391" fill="white" transform="translate(251 1865)"/>
</clipPath>
</defs>
</svg>
